<?xml version="1.0" encoding="utf-8"?>
<!-- Generator: Adobe Illustrator 19.0.0, SVG Export Plug-In . SVG Version: 6.00 Build 0)  -->
<svg version="1.1" id="Camada_1" xmlns="http://www.w3.org/2000/svg" xmlns:xlink="http://www.w3.org/1999/xlink" x="0px" y="0px"
	 viewBox="0 0 244.5 251.4" style="enable-background:new 0 0 244.5 251.4;" xml:space="preserve">
<style type="text/css">
	.st0{fill:#F15A24;}
</style>
<g id="XMLID_3_">
	<path id="XMLID_14_" class="st0" d="M187,25.5c13.6,7.8,16.5,20.6,14.2,35.2c-2.8,17.2-11.2,30.8-26.6,39c-16,8.5-32,0.8-35.9-17.2
		c-4.7-21.8,9.4-49.1,29.6-56.5c3.7-1.3,7.7-1.5,11.6-2.2C182.3,24.4,184.7,24.9,187,25.5z"/>
	<path id="XMLID_13_" class="st0" d="M237.1,134c-3.3,7.1-7.1,13.7-13.1,18.8c-8.3,7.1-17.4,11.7-28.4,9.6
		c-10.8-2-17.4-10.1-18-21.5c-1.2-20.2,15.9-41.5,35.3-44c15.4-2,26.9,8.9,26.2,25c0,0.9,0,1.8,0.1,2.7
		C238.6,127.7,237.9,130.9,237.1,134z"/>
	<path id="XMLID_12_" class="st0" d="M7.1,71c0.7-1.4,1.5-2.8,2.2-4.2c8.3-15.9,24.9-18.8,37.3-6.6c11.9,11.7,15.4,33.9,7.6,49
		c-9.4,18.4-29.6,19.9-41.4,3.1c-6-8.6-8.5-18.3-8-28.9c0-0.8-0.1-1.6-0.1-2.4C5.5,77.7,6.3,74.3,7.1,71z"/>
	<path id="XMLID_11_" class="st0" d="M178.6,218.9c-5.3,22.2-28.3,34.6-48.4,25.8c-6.9-3-13.7-6.6-20.2-10.4
		c-14.4-8.4-29.8-10.5-46.2-9.3c-7.6,0.6-15.5,0.5-23-0.9c-16.9-3-28.3-20.3-26-38.1c2.5-19.1,13.6-32.2,29.1-41.4
		c11.8-7,22.1-15.7,32.3-24.9c5.6-5.1,11.4-9.9,17.6-14.2c18.3-12.7,40.9-2.5,49.1,11.3c2.4,4.1,4.7,8.5,6.2,13.1
		c5.5,17.1,12.3,33.4,22.1,48.5c6.7,10.3,9.5,22.4,8.2,35.2C179.2,215.3,178.9,217.1,178.6,218.9z"/>
	<path id="XMLID_10_" class="st0" d="M121.4,56.5c-1.8,7.7-5.1,14.7-10.4,20.4c-11.7,12.6-28.2,11.5-37.8-2.6
		c-6.8-10-8.7-21.4-7.4-33.4c1-8.9,3.9-17.1,9.4-24.2c12.4-16.2,32.1-14.8,41.8,2.8C123.3,31.1,124.3,43.6,121.4,56.5z"/>
</g>
</svg>
